<?xml version="1.0" encoding="UTF-8" standalone="no"?><svg xmlns="http://www.w3.org/2000/svg" xmlns:xlink="http://www.w3.org/1999/xlink" clip-rule="evenodd" stroke-miterlimit="4.00" viewBox="0 0 1920 1080"><desc>SVG generated by Keynote</desc><defs></defs><g transform="matrix(1.00, 0.00, -0.00, -1.00, 0.0, 1080.0)"><path d="M 0.0 1080.0 L 1920.0 1080.0 L 1920.0 0.0 L 0.0 0.0 Z M 0.0 1080.0 " fill="#000000"></path><text xml:space="preserve" font-family="Helvetica-Light" font-size="60.0" fill="#FEFFFF" transform="matrix(1.00, 0.00, -0.00, -1.00, 600.0, 518.0)">T</text><text xml:space="preserve" font-family="Helvetica-Light" font-size="60.0" fill="#FEFFFF" transform="matrix(1.00, 0.00, -0.00, -1.00, 633.4, 518.0)">H</text><text xml:space="preserve" font-family="Helvetica-Light" font-size="60.0" fill="#FEFFFF" transform="matrix(1.00, 0.00, -0.00, -1.00, 676.7, 518.0)">I</text><text xml:space="preserve" font-family="Helvetica-Light" font-size="60.0" fill="#FEFFFF" transform="matrix(1.00, 0.00, -0.00, -1.00, 693.4, 518.0)">S</text><text xml:space="preserve" font-family="Helvetica-Light" font-size="60.0" fill="#FEFFFF" transform="matrix(1.00, 0.00, -0.00, -1.00, 730.0, 518.0)"> </text><text xml:space="preserve" font-family="Helvetica-Light" font-size="60.0" fill="#FEFFFF" transform="matrix(1.00, 0.00, -0.00, -1.00, 746.7, 518.0)">I</text><text xml:space="preserve" font-family="Helvetica-Light" font-size="60.0" fill="#FEFFFF" transform="matrix(1.00, 0.00, -0.00, -1.00, 763.4, 518.0)">S</text><text xml:space="preserve" font-family="Helvetica-Light" font-size="60.0" fill="#FEFFFF" transform="matrix(1.00, 0.00, -0.00, -1.00, 800.0, 518.0)"> </text><text xml:space="preserve" font-family="Helvetica-Light" font-size="60.0" fill="#FEFFFF" transform="matrix(1.00, 0.00, -0.00, -1.00, 816.7, 518.0)">A</text><text xml:space="preserve" font-family="Helvetica-Light" font-size="60.0" fill="#FEFFFF" transform="matrix(1.00, 0.00, -0.00, -1.00, 856.7, 518.0)"> </text><text xml:space="preserve" font-family="Helvetica-Light" font-size="60.0" fill="#FEFFFF" transform="matrix(1.00, 0.00, -0.00, -1.00, 873.4, 518.0)">P</text><text xml:space="preserve" font-family="Helvetica-Light" font-size="60.0" fill="#FEFFFF" transform="matrix(1.00, 0.00, -0.00, -1.00, 910.1, 518.0)">R</text><text xml:space="preserve" font-family="Helvetica-Light" font-size="60.0" fill="#FEFFFF" transform="matrix(1.00, 0.00, -0.00, -1.00, 950.1, 518.0)">O</text><text xml:space="preserve" font-family="Helvetica-Light" font-size="60.0" fill="#FEFFFF" transform="matrix(1.00, 0.00, -0.00, -1.00, 996.8, 518.0)">T</text><text xml:space="preserve" font-family="Helvetica-Light" font-size="60.0" fill="#FEFFFF" transform="matrix(1.00, 0.00, -0.00, -1.00, 1030.1, 518.0)">O</text><text xml:space="preserve" font-family="Helvetica-Light" font-size="60.0" fill="#FEFFFF" transform="matrix(1.00, 0.00, -0.00, -1.00, 1076.8, 518.0)">T</text><text xml:space="preserve" font-family="Helvetica-Light" font-size="60.0" fill="#FEFFFF" transform="matrix(1.00, 0.00, -0.00, -1.00, 1110.2, 518.0)">Y</text><text xml:space="preserve" font-family="Helvetica-Light" font-size="60.0" fill="#FEFFFF" transform="matrix(1.00, 0.00, -0.00, -1.00, 1146.8, 518.0)">P</text><text xml:space="preserve" font-family="Helvetica-Light" font-size="60.0" fill="#FEFFFF" transform="matrix(1.00, 0.00, -0.00, -1.00, 1183.5, 518.0)">E</text><text xml:space="preserve" font-family="Helvetica-Light" font-size="60.0" fill="#FEFFFF" transform="matrix(1.00, 0.00, -0.00, -1.00, 1220.2, 518.0)">!</text><text xml:space="preserve" font-family="Helvetica-Light" font-size="60.0" fill="#FEFFFF" transform="matrix(1.00, 0.00, -0.00, -1.00, 1240.1, 518.0)">!</text><text xml:space="preserve" font-family="Helvetica-Light" font-size="60.0" fill="#FEFFFF" transform="matrix(1.00, 0.00, -0.00, -1.00, 1260.1, 518.0)">!</text><text xml:space="preserve" font-family="Helvetica-Light" font-size="60.0" fill="#FEFFFF" transform="matrix(1.00, 0.00, -0.00, -1.00, 1280.1, 518.0)">!</text><text xml:space="preserve" font-family="Helvetica-Light" font-size="60.0" fill="#FEFFFF" transform="matrix(1.00, 0.00, -0.00, -1.00, 1300.1, 518.0)">!</text></g></svg>