<?xml version="1.0" encoding="UTF-8" standalone="no"?><svg xmlns="http://www.w3.org/2000/svg" xmlns:xlink="http://www.w3.org/1999/xlink" clip-rule="evenodd" stroke-miterlimit="4.00" viewBox="0 0 1920 1080"><desc>SVG generated by Keynote</desc><defs></defs><g transform="matrix(1.00, 0.00, -0.00, -1.00, 0.0, 1080.0)"><path d="M 0.0 1080.0 L 1920.0 1080.0 L 1920.0 0.0 L 0.0 0.0 Z M 0.0 1080.0 " fill="#000000"></path><text xml:space="preserve" font-family="Helvetica" font-size="100.0" fill="#FEFFFF" transform="matrix(1.00, 0.00, -0.00, -1.00, 34.0, 980.0)">i</text><text xml:space="preserve" font-family="Helvetica" font-size="100.0" fill="#FEFFFF" transform="matrix(1.00, 0.00, -0.00, -1.00, 56.2, 980.0)">n</text><text xml:space="preserve" font-family="Helvetica" font-size="100.0" fill="#FEFFFF" transform="matrix(1.00, 0.00, -0.00, -1.00, 111.9, 980.0)">s</text><text xml:space="preserve" font-family="Helvetica" font-size="100.0" fill="#FEFFFF" transform="matrix(1.00, 0.00, -0.00, -1.00, 161.9, 980.0)">p</text><text xml:space="preserve" font-family="Helvetica" font-size="100.0" fill="#FEFFFF" transform="matrix(1.00, 0.00, -0.00, -1.00, 217.5, 980.0)">i</text><text xml:space="preserve" font-family="Helvetica" font-size="100.0" fill="#FEFFFF" transform="matrix(1.00, 0.00, -0.00, -1.00, 239.7, 980.0)">r</text><text xml:space="preserve" font-family="Helvetica" font-size="100.0" fill="#FEFFFF" transform="matrix(1.00, 0.00, -0.00, -1.00, 273.0, 980.0)">a</text><text xml:space="preserve" font-family="Helvetica" font-size="100.0" fill="#FEFFFF" transform="matrix(1.00, 0.00, -0.00, -1.00, 328.7, 980.0)">t</text><text xml:space="preserve" font-family="Helvetica" font-size="100.0" fill="#FEFFFF" transform="matrix(1.00, 0.00, -0.00, -1.00, 356.4, 980.0)">i</text><text xml:space="preserve" font-family="Helvetica" font-size="100.0" fill="#FEFFFF" transform="matrix(1.00, 0.00, -0.00, -1.00, 378.7, 980.0)">o</text><text xml:space="preserve" font-family="Helvetica" font-size="100.0" fill="#FEFFFF" transform="matrix(1.00, 0.00, -0.00, -1.00, 434.3, 980.0)">n</text><text xml:space="preserve" font-family="Helvetica" font-size="100.0" fill="#FEFFFF" transform="matrix(1.00, 0.00, -0.00, -1.00, 490.0, 980.0)">:</text><image xlink:href="CF831A4B2346204E898B3EDF635A45E0.png" width="520.00" height="541.00" transform="matrix(1.26, 0.00, -0.00, -1.26, 308.0, 846.0)"></image><text xml:space="preserve" font-family="Helvetica" font-size="70.0" fill="#FEFFFE" transform="matrix(1.00, 0.00, -0.00, -1.00, 1129.0, 642.0)">C</text><text xml:space="preserve" font-family="Helvetica" font-size="70.0" fill="#FEFFFE" transform="matrix(1.00, 0.00, -0.00, -1.00, 1179.6, 642.0)">o</text><text xml:space="preserve" font-family="Helvetica" font-size="70.0" fill="#FEFFFE" transform="matrix(1.00, 0.00, -0.00, -1.00, 1218.5, 642.0)">f</text><text xml:space="preserve" font-family="Helvetica" font-size="70.0" fill="#FEFFFE" transform="matrix(1.00, 0.00, -0.00, -1.00, 1236.7, 642.0)">f</text><text xml:space="preserve" font-family="Helvetica" font-size="70.0" fill="#FEFFFE" transform="matrix(1.00, 0.00, -0.00, -1.00, 1256.2, 642.0)">e</text><text xml:space="preserve" font-family="Helvetica" font-size="70.0" fill="#FEFFFE" transform="matrix(1.00, 0.00, -0.00, -1.00, 1295.1, 642.0)">e</text><text xml:space="preserve" font-family="Helvetica" font-size="70.0" fill="#FEFFFE" transform="matrix(1.00, 0.00, -0.00, -1.00, 1334.0, 642.0)"> </text><text xml:space="preserve" font-family="Helvetica" font-size="70.0" fill="#FEFFFE" transform="matrix(1.00, 0.00, -0.00, -1.00, 1353.5, 642.0)">ﬂ</text><text xml:space="preserve" font-family="Helvetica" font-size="70.0" fill="#FEFFFE" transform="matrix(1.00, 0.00, -0.00, -1.00, 1388.5, 642.0)">a</text><text xml:space="preserve" font-family="Helvetica" font-size="70.0" fill="#FEFFFE" transform="matrix(1.00, 0.00, -0.00, -1.00, 1427.4, 642.0)">v</text><text xml:space="preserve" font-family="Helvetica" font-size="70.0" fill="#FEFFFE" transform="matrix(1.00, 0.00, -0.00, -1.00, 1462.4, 642.0)">o</text><text xml:space="preserve" font-family="Helvetica" font-size="70.0" fill="#FEFFFE" transform="matrix(1.00, 0.00, -0.00, -1.00, 1501.4, 642.0)">r</text><text xml:space="preserve" font-family="Helvetica" font-size="70.0" fill="#FEFFFE" transform="matrix(1.00, 0.00, -0.00, -1.00, 1524.7, 642.0)"> </text><text xml:space="preserve" font-family="Helvetica" font-size="70.0" fill="#FEFFFE" transform="matrix(1.00, 0.00, -0.00, -1.00, 1544.1, 642.0)">w</text><text xml:space="preserve" font-family="Helvetica" font-size="70.0" fill="#FEFFFE" transform="matrix(1.00, 0.00, -0.00, -1.00, 1594.7, 642.0)">h</text><text xml:space="preserve" font-family="Helvetica" font-size="70.0" fill="#FEFFFE" transform="matrix(1.00, 0.00, -0.00, -1.00, 1633.6, 642.0)">e</text><text xml:space="preserve" font-family="Helvetica" font-size="70.0" fill="#FEFFFE" transform="matrix(1.00, 0.00, -0.00, -1.00, 1672.6, 642.0)">e</text><text xml:space="preserve" font-family="Helvetica" font-size="70.0" fill="#FEFFFE" transform="matrix(1.00, 0.00, -0.00, -1.00, 1711.5, 642.0)">l</text><text xml:space="preserve" font-family="Helvetica" font-size="50.0" fill="#FEFFFE" transform="matrix(1.00, 0.00, -0.00, -1.00, 1273.0, 577.0)"> </text><text xml:space="preserve" font-family="Helvetica" font-size="50.0" fill="#FEFFFE" transform="matrix(1.00, 0.00, -0.00, -1.00, 1286.9, 577.0)"> </text><text xml:space="preserve" font-family="Helvetica" font-size="50.0" fill="#FEFFFE" transform="matrix(1.00, 0.00, -0.00, -1.00, 1300.8, 577.0)">-</text><text xml:space="preserve" font-family="Helvetica" font-size="50.0" fill="#FEFFFE" transform="matrix(1.00, 0.00, -0.00, -1.00, 1317.4, 577.0)">a</text><text xml:space="preserve" font-family="Helvetica" font-size="50.0" fill="#FEFFFE" transform="matrix(1.00, 0.00, -0.00, -1.00, 1345.2, 577.0)"> </text><text xml:space="preserve" font-family="Helvetica" font-size="50.0" fill="#FEFFFE" transform="matrix(1.00, 0.00, -0.00, -1.00, 1359.1, 577.0)">s</text><text xml:space="preserve" font-family="Helvetica" font-size="50.0" fill="#FEFFFE" transform="matrix(1.00, 0.00, -0.00, -1.00, 1384.1, 577.0)">u</text><text xml:space="preserve" font-family="Helvetica" font-size="50.0" fill="#FEFFFE" transform="matrix(1.00, 0.00, -0.00, -1.00, 1411.9, 577.0)">n</text><text xml:space="preserve" font-family="Helvetica" font-size="50.0" fill="#FEFFFE" transform="matrix(1.00, 0.00, -0.00, -1.00, 1439.7, 577.0)">b</text><text xml:space="preserve" font-family="Helvetica" font-size="50.0" fill="#FEFFFE" transform="matrix(1.00, 0.00, -0.00, -1.00, 1467.6, 577.0)">u</text><text xml:space="preserve" font-family="Helvetica" font-size="50.0" fill="#FEFFFE" transform="matrix(1.00, 0.00, -0.00, -1.00, 1495.4, 577.0)">r</text><text xml:space="preserve" font-family="Helvetica" font-size="50.0" fill="#FEFFFE" transform="matrix(1.00, 0.00, -0.00, -1.00, 1512.0, 577.0)">s</text><text xml:space="preserve" font-family="Helvetica" font-size="50.0" fill="#FEFFFE" transform="matrix(1.00, 0.00, -0.00, -1.00, 1537.0, 577.0)">t</text><text xml:space="preserve" font-family="Helvetica" font-size="50.0" fill="#FEFFFE" transform="matrix(1.00, 0.00, -0.00, -1.00, 1550.9, 577.0)"> </text><text xml:space="preserve" font-family="Helvetica" font-size="50.0" fill="#FEFFFE" transform="matrix(1.00, 0.00, -0.00, -1.00, 1564.8, 577.0)">d</text><text xml:space="preserve" font-family="Helvetica" font-size="50.0" fill="#FEFFFE" transform="matrix(1.00, 0.00, -0.00, -1.00, 1592.6, 577.0)">i</text><text xml:space="preserve" font-family="Helvetica" font-size="50.0" fill="#FEFFFE" transform="matrix(1.00, 0.00, -0.00, -1.00, 1603.7, 577.0)">a</text><text xml:space="preserve" font-family="Helvetica" font-size="50.0" fill="#FEFFFE" transform="matrix(1.00, 0.00, -0.00, -1.00, 1631.6, 577.0)">g</text><text xml:space="preserve" font-family="Helvetica" font-size="50.0" fill="#FEFFFE" transform="matrix(1.00, 0.00, -0.00, -1.00, 1659.4, 577.0)">r</text><text xml:space="preserve" font-family="Helvetica" font-size="50.0" fill="#FEFFFE" transform="matrix(1.00, 0.00, -0.00, -1.00, 1676.0, 577.0)">a</text><text xml:space="preserve" font-family="Helvetica" font-size="50.0" fill="#FEFFFE" transform="matrix(1.00, 0.00, -0.00, -1.00, 1703.8, 577.0)">m</text><text xml:space="preserve" font-family="Helvetica-Light" font-size="25.0" fill="#FEFFFF" transform="matrix(1.00, 0.00, -0.00, -1.00, 395.0, 129.0)">h</text><text xml:space="preserve" font-family="Helvetica-Light" font-size="25.0" fill="#FEFFFF" transform="matrix(1.00, 0.00, -0.00, -1.00, 408.9, 129.0)">t</text><text xml:space="preserve" font-family="Helvetica-Light" font-size="25.0" fill="#FEFFFF" transform="matrix(1.00, 0.00, -0.00, -1.00, 415.9, 129.0)">t</text><text xml:space="preserve" font-family="Helvetica-Light" font-size="25.0" fill="#FEFFFF" transform="matrix(1.00, 0.00, -0.00, -1.00, 422.8, 129.0)">p</text><text xml:space="preserve" font-family="Helvetica-Light" font-size="25.0" fill="#FEFFFF" transform="matrix(1.00, 0.00, -0.00, -1.00, 438.1, 129.0)">s</text><text xml:space="preserve" font-family="Helvetica-Light" font-size="25.0" fill="#FEFFFF" transform="matrix(1.00, 0.00, -0.00, -1.00, 450.6, 129.0)">:</text><text xml:space="preserve" font-family="Helvetica-Light" font-size="25.0" fill="#FEFFFF" transform="matrix(1.00, 0.00, -0.00, -1.00, 457.5, 129.0)">/</text><text xml:space="preserve" font-family="Helvetica-Light" font-size="25.0" fill="#FEFFFF" transform="matrix(1.00, 0.00, -0.00, -1.00, 464.5, 129.0)">/</text><text xml:space="preserve" font-family="Helvetica-Light" font-size="25.0" fill="#FEFFFF" transform="matrix(1.00, 0.00, -0.00, -1.00, 471.4, 129.0)">w</text><text xml:space="preserve" font-family="Helvetica-Light" font-size="25.0" fill="#FEFFFF" transform="matrix(1.00, 0.00, -0.00, -1.00, 489.5, 129.0)">w</text><text xml:space="preserve" font-family="Helvetica-Light" font-size="25.0" fill="#FEFFFF" transform="matrix(1.00, 0.00, -0.00, -1.00, 507.5, 129.0)">w</text><text xml:space="preserve" font-family="Helvetica-Light" font-size="25.0" fill="#FEFFFF" transform="matrix(1.00, 0.00, -0.00, -1.00, 524.2, 129.0)">.</text><text xml:space="preserve" font-family="Helvetica-Light" font-size="25.0" fill="#FEFFFF" transform="matrix(1.00, 0.00, -0.00, -1.00, 531.1, 129.0)">j</text><text xml:space="preserve" font-family="Helvetica-Light" font-size="25.0" fill="#FEFFFF" transform="matrix(1.00, 0.00, -0.00, -1.00, 536.7, 129.0)">a</text><text xml:space="preserve" font-family="Helvetica-Light" font-size="25.0" fill="#FEFFFF" transform="matrix(1.00, 0.00, -0.00, -1.00, 550.6, 129.0)">s</text><text xml:space="preserve" font-family="Helvetica-Light" font-size="25.0" fill="#FEFFFF" transform="matrix(1.00, 0.00, -0.00, -1.00, 563.1, 129.0)">o</text><text xml:space="preserve" font-family="Helvetica-Light" font-size="25.0" fill="#FEFFFF" transform="matrix(1.00, 0.00, -0.00, -1.00, 577.0, 129.0)">n</text><text xml:space="preserve" font-family="Helvetica-Light" font-size="25.0" fill="#FEFFFF" transform="matrix(1.00, 0.00, -0.00, -1.00, 590.9, 129.0)">d</text><text xml:space="preserve" font-family="Helvetica-Light" font-size="25.0" fill="#FEFFFF" transform="matrix(1.00, 0.00, -0.00, -1.00, 606.2, 129.0)">a</text><text xml:space="preserve" font-family="Helvetica-Light" font-size="25.0" fill="#FEFFFF" transform="matrix(1.00, 0.00, -0.00, -1.00, 620.1, 129.0)">v</text><text xml:space="preserve" font-family="Helvetica-Light" font-size="25.0" fill="#FEFFFF" transform="matrix(1.00, 0.00, -0.00, -1.00, 632.6, 129.0)">i</text><text xml:space="preserve" font-family="Helvetica-Light" font-size="25.0" fill="#FEFFFF" transform="matrix(1.00, 0.00, -0.00, -1.00, 638.1, 129.0)">e</text><text xml:space="preserve" font-family="Helvetica-Light" font-size="25.0" fill="#FEFFFF" transform="matrix(1.00, 0.00, -0.00, -1.00, 652.0, 129.0)">s</text><text xml:space="preserve" font-family="Helvetica-Light" font-size="25.0" fill="#FEFFFF" transform="matrix(1.00, 0.00, -0.00, -1.00, 664.5, 129.0)">.</text><text xml:space="preserve" font-family="Helvetica-Light" font-size="25.0" fill="#FEFFFF" transform="matrix(1.00, 0.00, -0.00, -1.00, 671.5, 129.0)">c</text><text xml:space="preserve" font-family="Helvetica-Light" font-size="25.0" fill="#FEFFFF" transform="matrix(1.00, 0.00, -0.00, -1.00, 685.4, 129.0)">o</text><text xml:space="preserve" font-family="Helvetica-Light" font-size="25.0" fill="#FEFFFF" transform="matrix(1.00, 0.00, -0.00, -1.00, 699.3, 129.0)">m</text><text xml:space="preserve" font-family="Helvetica-Light" font-size="25.0" fill="#FEFFFF" transform="matrix(1.00, 0.00, -0.00, -1.00, 720.1, 129.0)">/</text><text xml:space="preserve" font-family="Helvetica-Light" font-size="25.0" fill="#FEFFFF" transform="matrix(1.00, 0.00, -0.00, -1.00, 727.0, 129.0)">c</text><text xml:space="preserve" font-family="Helvetica-Light" font-size="25.0" fill="#FEFFFF" transform="matrix(1.00, 0.00, -0.00, -1.00, 740.9, 129.0)">o</text><text xml:space="preserve" font-family="Helvetica-Light" font-size="25.0" fill="#FEFFFF" transform="matrix(1.00, 0.00, -0.00, -1.00, 754.8, 129.0)">f</text><text xml:space="preserve" font-family="Helvetica-Light" font-size="25.0" fill="#FEFFFF" transform="matrix(1.00, 0.00, -0.00, -1.00, 761.3, 129.0)">f</text><text xml:space="preserve" font-family="Helvetica-Light" font-size="25.0" fill="#FEFFFF" transform="matrix(1.00, 0.00, -0.00, -1.00, 768.3, 129.0)">e</text><text xml:space="preserve" font-family="Helvetica-Light" font-size="25.0" fill="#FEFFFF" transform="matrix(1.00, 0.00, -0.00, -1.00, 782.2, 129.0)">e</text><text xml:space="preserve" font-family="Helvetica-Light" font-size="25.0" fill="#FEFFFF" transform="matrix(1.00, 0.00, -0.00, -1.00, 796.1, 129.0)">-</text><text xml:space="preserve" font-family="Helvetica-Light" font-size="25.0" fill="#FEFFFF" transform="matrix(1.00, 0.00, -0.00, -1.00, 804.4, 129.0)">w</text><text xml:space="preserve" font-family="Helvetica-Light" font-size="25.0" fill="#FEFFFF" transform="matrix(1.00, 0.00, -0.00, -1.00, 822.5, 129.0)">h</text><text xml:space="preserve" font-family="Helvetica-Light" font-size="25.0" fill="#FEFFFF" transform="matrix(1.00, 0.00, -0.00, -1.00, 836.4, 129.0)">e</text><text xml:space="preserve" font-family="Helvetica-Light" font-size="25.0" fill="#FEFFFF" transform="matrix(1.00, 0.00, -0.00, -1.00, 850.3, 129.0)">e</text><text xml:space="preserve" font-family="Helvetica-Light" font-size="25.0" fill="#FEFFFF" transform="matrix(1.00, 0.00, -0.00, -1.00, 864.2, 129.0)">l</text><text xml:space="preserve" font-family="Helvetica-Light" font-size="25.0" fill="#FEFFFF" transform="matrix(1.00, 0.00, -0.00, -1.00, 869.7, 129.0)">/</text></g></svg>